<?xml version="1.0" encoding="utf-8"?>
<!-- Generator: Adobe Illustrator 15.0.0, SVG Export Plug-In . SVG Version: 6.00 Build 0)  -->
<!DOCTYPE svg PUBLIC "-//W3C//DTD SVG 1.1//EN" "http://www.w3.org/Graphics/SVG/1.1/DTD/svg11.dtd">
<svg version="1.1" id="Layer_1" xmlns="http://www.w3.org/2000/svg" xmlns:xlink="http://www.w3.org/1999/xlink" x="0px" y="0px"
	 width="100.635px" height="100.84px" viewBox="0 0 100.635 100.84" enable-background="new 0 0 100.635 100.84"
	 xml:space="preserve">
<g id="Layer_1_1_">
</g>
<g id="Layer_2">
	<g>
		<ellipse fill="#555655" cx="50.317" cy="50.42" rx="50.317" ry="50.42"/>
		<ellipse fill="#FFFFFF" cx="50.319" cy="50.42" rx="45.825" ry="45.917"/>
		<ellipse fill="#555655" cx="50.32" cy="50.419" rx="43.468" ry="43.556"/>
		<g>
			<path fill="#FFFFFF" d="M10.619,47.294c0.084-0.595,0.285-1.062,0.604-1.401c0.316-0.338,0.639-0.569,0.967-0.69
				c0.328-0.122,0.613-0.135,0.855-0.041c0.243,0.095,0.333,0.304,0.271,0.629c-0.063,0.379-0.138,0.893-0.223,1.543
				c-0.084,0.649-0.158,1.313-0.222,1.989c-0.062,0.677-0.116,1.32-0.158,1.929c-0.042,0.609-0.062,1.05-0.062,1.318
				c0.084-0.379,0.189-0.771,0.316-1.176c0.128-0.406,0.26-0.806,0.396-1.199c0.137-0.392,0.28-0.751,0.428-1.076
				c0.147-0.325,0.285-0.582,0.412-0.771c0.147-0.271,0.375-0.48,0.683-0.629c0.306-0.147,0.592-0.224,0.855-0.224
				s0.481,0.095,0.65,0.284s0.2,0.461,0.095,0.812c-0.043,0.162-0.085,0.474-0.127,0.934c-0.043,0.461-0.085,0.961-0.127,1.501
				c0.127-0.378,0.296-0.797,0.507-1.258c0.211-0.46,0.423-0.899,0.634-1.319c0.211-0.419,0.407-0.805,0.586-1.157
				c0.18-0.352,0.322-0.609,0.429-0.771c0.146-0.271,0.369-0.494,0.666-0.67c0.295-0.175,0.58-0.264,0.855-0.264
				c0.274,0,0.507,0.088,0.698,0.264c0.189,0.177,0.273,0.467,0.253,0.873c-0.021,0.19-0.06,0.515-0.111,0.975
				c-0.053,0.46-0.122,0.989-0.206,1.583c-0.085,0.596-0.164,1.218-0.237,1.867c-0.075,0.649-0.139,1.24-0.19,1.767
				c-0.053,0.526-0.084,0.969-0.095,1.319c-0.012,0.352,0.025,0.527,0.11,0.527c0.127,0,0.297-0.188,0.509-0.568
				c0.211-0.379,0.417-0.831,0.617-1.359c0.201-0.527,0.392-1.076,0.571-1.645c0.179-0.568,0.312-1.029,0.396-1.381
				c0.062-0.244,0.164-0.412,0.301-0.507c0.137-0.095,0.27-0.122,0.396-0.081c0.127,0.041,0.232,0.136,0.317,0.284
				c0.084,0.149,0.106,0.345,0.062,0.588c-0.062,0.379-0.205,0.914-0.428,1.604c-0.222,0.69-0.492,1.389-0.809,2.092
				c-0.317,0.704-0.666,1.34-1.046,1.908c-0.38,0.567-0.772,0.894-1.173,0.975c-0.444,0.108-0.799,0.041-1.062-0.203
				c-0.265-0.243-0.455-0.596-0.571-1.056s-0.186-0.98-0.206-1.562s-0.011-1.156,0.032-1.727c0.042-0.568,0.095-1.076,0.158-1.522
				c0.062-0.446,0.127-0.778,0.19-0.995c-0.106,0.054-0.266,0.312-0.477,0.771c-0.211,0.46-0.428,0.967-0.649,1.521
				c-0.223,0.557-0.429,1.098-0.619,1.625s-0.317,0.888-0.38,1.076v-0.041c-0.042,0.162-0.144,0.347-0.302,0.549
				c-0.159,0.203-0.344,0.365-0.555,0.486c-0.21,0.124-0.405,0.186-0.585,0.186s-0.301-0.137-0.365-0.406
				c-0.062-0.271-0.105-0.643-0.126-1.117c-0.021-0.473-0.032-0.934-0.032-1.381c0-0.445,0.006-0.854,0.017-1.218
				c0.011-0.365,0.005-0.589-0.017-0.67c-0.105,0.055-0.222,0.298-0.349,0.73c-0.126,0.433-0.259,0.921-0.396,1.462
				c-0.139,0.541-0.26,1.096-0.365,1.664c-0.106,0.568-0.181,1.016-0.223,1.34c-0.042,0.354-0.185,0.616-0.428,0.793
				c-0.244,0.176-0.507,0.264-0.793,0.264c-0.285,0-0.539-0.096-0.761-0.284s-0.323-0.487-0.301-0.894
				c0.021-0.459,0.016-1.076-0.017-1.849s-0.062-1.575-0.095-2.416c-0.032-0.838-0.047-1.664-0.047-2.477
				C10.524,48.512,10.556,47.836,10.619,47.294z"/>
			<path fill="#FFFFFF" d="M25.458,42.909c0.042,0.298,0.017,0.576-0.079,0.833c-0.095,0.258-0.237,0.487-0.428,0.69
				c-0.189,0.203-0.412,0.373-0.666,0.507c-0.253,0.136-0.518,0.23-0.792,0.284c-0.529,0.082-1.046,0.014-1.554-0.203
				c-0.507-0.216-0.793-0.609-0.856-1.178c-0.084-0.595,0.06-1.103,0.429-1.522c0.369-0.419,0.86-0.697,1.475-0.833
				c0.613-0.135,1.162-0.074,1.649,0.183C25.12,41.928,25.395,42.34,25.458,42.909z M21.844,48.472c0-0.649,0.132-1.096,0.396-1.34
				c0.264-0.244,0.555-0.338,0.872-0.284c0.317,0.055,0.592,0.23,0.825,0.528c0.231,0.298,0.316,0.664,0.253,1.096
				c-0.084,0.487-0.164,1.096-0.238,1.827c-0.074,0.731-0.122,1.436-0.143,2.111c-0.021,0.678-0.005,1.259,0.048,1.746
				c0.052,0.486,0.174,0.729,0.364,0.729c0.127,0,0.279-0.209,0.46-0.629c0.179-0.42,0.354-0.914,0.522-1.481
				c0.169-0.568,0.328-1.137,0.477-1.705c0.146-0.568,0.242-1.001,0.284-1.299c0.063-0.27,0.169-0.453,0.317-0.548
				c0.148-0.095,0.291-0.122,0.428-0.082c0.138,0.041,0.254,0.142,0.35,0.305c0.095,0.163,0.11,0.365,0.048,0.609
				c-0.042,0.163-0.111,0.467-0.206,0.914c-0.095,0.447-0.217,0.941-0.365,1.482c-0.147,0.541-0.323,1.104-0.522,1.686
				c-0.201,0.582-0.434,1.096-0.697,1.543c-0.266,0.445-0.555,0.791-0.872,1.035c-0.317,0.243-0.666,0.297-1.046,0.162
				c-0.571-0.217-0.979-0.615-1.221-1.197c-0.243-0.582-0.387-1.26-0.429-2.031c-0.042-0.771-0.037-1.608,0.017-2.517
				C21.817,50.225,21.844,49.338,21.844,48.472z"/>
			<path fill="#FFFFFF" d="M25.934,47.822c0.062-0.542,0.243-0.947,0.539-1.218c0.295-0.271,0.597-0.419,0.902-0.447
				c0.308-0.026,0.576,0.055,0.81,0.244c0.231,0.19,0.328,0.487,0.286,0.894c-0.042,0.379-0.102,0.806-0.175,1.279
				c-0.073,0.474-0.143,0.948-0.206,1.421c-0.062,0.474-0.11,0.92-0.143,1.339c-0.032,0.42-0.037,0.766-0.016,1.035
				c0.169-0.73,0.364-1.387,0.586-1.969c0.222-0.582,0.448-1.076,0.682-1.482c0.169-0.271,0.401-0.48,0.698-0.629
				c0.296-0.148,0.581-0.216,0.855-0.203c0.275,0.014,0.497,0.116,0.666,0.305s0.201,0.46,0.096,0.812
				c-0.063,0.244-0.122,0.623-0.175,1.137c-0.053,0.515-0.079,1.036-0.079,1.562c0,0.529,0.021,0.988,0.062,1.382
				c0.042,0.393,0.116,0.589,0.222,0.589c0.127,0,0.296-0.148,0.508-0.446c0.211-0.298,0.422-0.655,0.634-1.075
				c0.211-0.42,0.407-0.867,0.586-1.341s0.312-0.887,0.396-1.239c0.042-0.244,0.132-0.406,0.271-0.487
				c0.137-0.081,0.27-0.108,0.396-0.081c0.126,0.027,0.232,0.115,0.317,0.264c0.084,0.149,0.104,0.345,0.062,0.588
				c-0.062,0.379-0.211,0.894-0.443,1.542c-0.233,0.65-0.507,1.287-0.825,1.909c-0.317,0.623-0.666,1.171-1.046,1.646
				c-0.38,0.474-0.75,0.709-1.11,0.709c-0.612,0-1.052-0.209-1.315-0.629c-0.265-0.42-0.439-0.894-0.523-1.422
				c-0.085-0.526-0.116-1.041-0.095-1.543c0.021-0.5,0.01-0.817-0.032-0.953c-0.106,0.056-0.217,0.244-0.333,0.568
				s-0.227,0.704-0.333,1.137c-0.105,0.435-0.201,0.888-0.286,1.36c-0.085,0.474-0.138,0.873-0.159,1.198
				c-0.042,0.352-0.185,0.615-0.428,0.791c-0.244,0.177-0.507,0.264-0.793,0.264c-0.285,0-0.544-0.094-0.777-0.283
				c-0.232-0.188-0.338-0.488-0.316-0.895c0.021-0.459,0.021-1.016,0-1.664c-0.021-0.65-0.042-1.333-0.063-2.051
				c-0.021-0.717-0.031-1.414-0.031-2.091C25.807,48.973,25.849,48.364,25.934,47.822z"/>
			<path fill="#FFFFFF" d="M38.902,39.417c0-0.65,0.137-1.103,0.412-1.36c0.273-0.257,0.571-0.372,0.888-0.345
				c0.317,0.027,0.597,0.176,0.84,0.447s0.333,0.623,0.271,1.056c-0.042,0.325-0.106,0.941-0.19,1.848s-0.174,1.956-0.27,3.147
				s-0.174,2.423-0.238,3.695c-0.063,1.272-0.095,2.45-0.095,3.533c0,1.084,0.037,1.97,0.11,2.66
				c0.074,0.688,0.217,1.034,0.429,1.034c0.189,0,0.386-0.229,0.587-0.69c0.201-0.459,0.396-0.994,0.586-1.604
				c0.189-0.609,0.354-1.204,0.492-1.787c0.137-0.582,0.227-1.008,0.27-1.279c0.063-0.27,0.164-0.453,0.301-0.548
				c0.138-0.095,0.274-0.122,0.412-0.082c0.138,0.041,0.253,0.142,0.35,0.305c0.096,0.163,0.122,0.379,0.08,0.649
				c-0.044,0.271-0.139,0.799-0.286,1.583c-0.148,0.785-0.37,1.59-0.666,2.416s-0.683,1.562-1.157,2.213
				c-0.477,0.649-1.042,0.976-1.696,0.976c-0.486,0-0.861-0.251-1.125-0.752c-0.265-0.5-0.471-1.156-0.619-1.97
				c-0.169,0.516-0.396,0.976-0.682,1.381c-0.286,0.406-0.64,0.703-1.062,0.894c-0.465,0.218-0.866,0.244-1.204,0.082
				c-0.613-0.188-1.101-0.614-1.458-1.278c-0.36-0.664-0.608-1.436-0.745-2.314c-0.138-0.879-0.153-1.793-0.048-2.741
				c0.105-0.947,0.321-1.8,0.649-2.558c0.328-0.757,0.767-1.346,1.316-1.766c0.55-0.419,1.215-0.548,1.998-0.386
				c0.422,0.081,0.792,0.365,1.108,0.853c0.084-1.543,0.181-2.977,0.286-4.304C38.849,41.096,38.902,40.094,38.902,39.417z
				 M38.173,49.446c-0.042-0.379-0.122-0.757-0.237-1.137c-0.116-0.379-0.291-0.595-0.523-0.65
				c-0.338-0.081-0.639,0.055-0.903,0.406c-0.265,0.352-0.48,0.806-0.649,1.36c-0.169,0.555-0.291,1.171-0.364,1.849
				c-0.075,0.677-0.095,1.319-0.062,1.929c0.031,0.608,0.121,1.124,0.27,1.543c0.147,0.42,0.359,0.657,0.634,0.71
				c0.274,0.055,0.533-0.107,0.777-0.486c0.243-0.379,0.454-0.865,0.634-1.462c0.181-0.595,0.312-1.259,0.396-1.989
				C38.226,50.786,38.236,50.096,38.173,49.446z"/>
			<path fill="#FFFFFF" d="M44.388,47.294c0.084-0.595,0.284-1.062,0.603-1.401c0.317-0.338,0.639-0.569,0.967-0.69
				c0.328-0.122,0.613-0.135,0.856-0.041c0.243,0.095,0.333,0.304,0.27,0.629c-0.062,0.379-0.138,0.893-0.222,1.543
				c-0.084,0.649-0.159,1.313-0.222,1.989c-0.063,0.677-0.116,1.32-0.158,1.929c-0.042,0.609-0.063,1.05-0.063,1.318
				c0.084-0.379,0.19-0.771,0.317-1.176c0.127-0.406,0.259-0.806,0.396-1.199c0.138-0.392,0.28-0.751,0.429-1.076
				c0.146-0.325,0.285-0.582,0.412-0.771c0.146-0.271,0.375-0.48,0.682-0.629c0.306-0.147,0.592-0.224,0.856-0.224
				c0.264,0,0.48,0.095,0.649,0.284s0.201,0.461,0.095,0.812c-0.043,0.162-0.085,0.474-0.127,0.934
				c-0.043,0.461-0.085,0.961-0.127,1.501c0.127-0.378,0.296-0.797,0.507-1.258c0.212-0.46,0.424-0.899,0.636-1.319
				c0.211-0.419,0.405-0.805,0.586-1.157c0.18-0.352,0.321-0.609,0.428-0.771c0.148-0.271,0.37-0.494,0.666-0.67
				c0.296-0.175,0.582-0.264,0.856-0.264c0.273,0,0.507,0.088,0.697,0.264c0.189,0.177,0.273,0.467,0.253,0.873
				c-0.021,0.19-0.059,0.515-0.109,0.975c-0.055,0.46-0.123,0.989-0.207,1.583c-0.084,0.596-0.164,1.218-0.237,1.867
				c-0.075,0.649-0.138,1.24-0.189,1.767c-0.053,0.526-0.084,0.969-0.097,1.319c-0.01,0.353,0.027,0.527,0.111,0.527
				c0.127,0,0.296-0.188,0.508-0.568c0.211-0.379,0.417-0.831,0.618-1.359c0.2-0.527,0.391-1.076,0.571-1.645
				c0.179-0.568,0.311-1.029,0.396-1.381c0.063-0.244,0.163-0.412,0.302-0.507c0.138-0.095,0.271-0.122,0.396-0.081
				c0.127,0.041,0.231,0.136,0.315,0.284c0.084,0.149,0.105,0.345,0.063,0.588c-0.063,0.379-0.206,0.914-0.428,1.604
				c-0.223,0.69-0.491,1.389-0.81,2.092c-0.316,0.704-0.666,1.34-1.046,1.908c-0.381,0.567-0.771,0.894-1.174,0.975
				c-0.443,0.108-0.799,0.041-1.062-0.203c-0.264-0.243-0.455-0.596-0.57-1.056c-0.117-0.46-0.187-0.98-0.206-1.562
				c-0.021-0.582-0.011-1.156,0.032-1.727c0.041-0.568,0.094-1.076,0.157-1.522c0.062-0.447,0.127-0.778,0.189-0.995
				c-0.105,0.054-0.264,0.312-0.475,0.771c-0.213,0.46-0.43,0.967-0.65,1.521c-0.223,0.557-0.428,1.098-0.619,1.625
				c-0.189,0.527-0.316,0.888-0.38,1.076v-0.041c-0.042,0.162-0.143,0.347-0.301,0.549c-0.159,0.203-0.344,0.365-0.556,0.486
				c-0.212,0.122-0.406,0.184-0.587,0.184c-0.18,0-0.301-0.135-0.364-0.405s-0.106-0.644-0.126-1.117
				c-0.021-0.473-0.032-0.934-0.032-1.381c0-0.446,0.005-0.853,0.016-1.218s0.005-0.59-0.016-0.67
				c-0.106,0.055-0.223,0.298-0.35,0.73c-0.126,0.434-0.259,0.92-0.396,1.461c-0.138,0.543-0.259,1.098-0.365,1.665
				c-0.105,0.568-0.18,1.015-0.222,1.341c-0.042,0.353-0.186,0.615-0.428,0.791c-0.244,0.176-0.508,0.265-0.793,0.265
				s-0.539-0.097-0.762-0.284c-0.222-0.188-0.322-0.487-0.301-0.895c0.021-0.459,0.016-1.076-0.016-1.848
				c-0.032-0.771-0.063-1.576-0.096-2.416c-0.031-0.838-0.047-1.664-0.047-2.477C44.292,48.512,44.324,47.836,44.388,47.294z"/>
			<path fill="#FFFFFF" d="M59.353,42.909c0.043,0.298,0.016,0.576-0.078,0.833c-0.096,0.258-0.238,0.487-0.429,0.69
				c-0.191,0.203-0.412,0.373-0.666,0.507c-0.253,0.136-0.52,0.23-0.792,0.284c-0.529,0.082-1.048,0.014-1.556-0.203
				c-0.507-0.216-0.793-0.609-0.854-1.178c-0.084-0.595,0.059-1.103,0.428-1.522c0.369-0.419,0.861-0.697,1.475-0.833
				c0.613-0.135,1.162-0.074,1.648,0.183C59.015,41.928,59.291,42.34,59.353,42.909z M55.739,48.472c0-0.649,0.132-1.096,0.396-1.34
				c0.264-0.244,0.555-0.338,0.871-0.284c0.316,0.055,0.593,0.23,0.824,0.528c0.232,0.298,0.316,0.664,0.254,1.096
				c-0.085,0.487-0.164,1.096-0.237,1.827c-0.074,0.731-0.121,1.436-0.144,2.111c-0.021,0.678-0.006,1.259,0.048,1.746
				c0.053,0.486,0.176,0.729,0.364,0.729c0.127,0,0.28-0.209,0.46-0.629c0.179-0.42,0.354-0.914,0.522-1.481
				c0.17-0.568,0.328-1.137,0.477-1.705c0.147-0.568,0.242-1.001,0.285-1.299c0.062-0.27,0.169-0.453,0.316-0.548
				c0.147-0.095,0.29-0.122,0.429-0.082c0.138,0.04,0.254,0.142,0.349,0.305c0.096,0.163,0.111,0.365,0.048,0.609
				c-0.042,0.163-0.109,0.467-0.206,0.914c-0.096,0.447-0.217,0.941-0.364,1.482s-0.322,1.104-0.523,1.686s-0.433,1.096-0.697,1.543
				c-0.264,0.445-0.555,0.791-0.871,1.035c-0.316,0.243-0.666,0.297-1.047,0.162c-0.569-0.217-0.979-0.615-1.221-1.197
				c-0.243-0.582-0.386-1.26-0.428-2.031c-0.043-0.771-0.037-1.608,0.016-2.517C55.712,50.225,55.739,49.338,55.739,48.472z"/>
			<path fill="#FFFFFF" d="M59.703,47.822c0.063-0.542,0.242-0.947,0.539-1.218c0.295-0.271,0.597-0.419,0.903-0.447
				c0.307-0.026,0.576,0.055,0.809,0.244c0.232,0.19,0.327,0.487,0.286,0.894c-0.043,0.379-0.102,0.806-0.175,1.279
				c-0.074,0.474-0.145,0.948-0.206,1.421c-0.063,0.474-0.111,0.92-0.144,1.339c-0.031,0.42-0.036,0.766-0.016,1.035
				c0.168-0.73,0.364-1.387,0.586-1.969c0.223-0.582,0.449-1.076,0.683-1.482c0.169-0.271,0.4-0.48,0.696-0.629
				c0.297-0.148,0.582-0.216,0.856-0.203c0.273,0.014,0.497,0.116,0.666,0.305s0.2,0.46,0.095,0.812
				c-0.062,0.244-0.121,0.623-0.174,1.137c-0.053,0.515-0.08,1.036-0.08,1.562c0,0.529,0.021,0.988,0.063,1.382
				c0.042,0.393,0.115,0.589,0.223,0.589c0.127,0,0.296-0.148,0.507-0.446s0.423-0.655,0.635-1.075
				c0.211-0.42,0.406-0.867,0.586-1.341c0.181-0.474,0.312-0.887,0.396-1.239c0.043-0.244,0.133-0.406,0.27-0.487
				c0.139-0.081,0.271-0.108,0.396-0.081c0.127,0.027,0.231,0.115,0.316,0.264c0.084,0.149,0.105,0.345,0.063,0.588
				c-0.063,0.379-0.211,0.894-0.443,1.542c-0.232,0.65-0.508,1.287-0.825,1.909c-0.316,0.623-0.664,1.171-1.046,1.646
				c-0.381,0.474-0.751,0.709-1.109,0.709c-0.613,0-1.053-0.209-1.315-0.629c-0.265-0.42-0.438-0.894-0.522-1.422
				c-0.085-0.526-0.116-1.041-0.097-1.543c0.021-0.5,0.012-0.817-0.03-0.953c-0.105,0.056-0.218,0.244-0.333,0.568
				c-0.116,0.324-0.229,0.704-0.333,1.137c-0.105,0.435-0.201,0.888-0.285,1.36c-0.084,0.474-0.139,0.873-0.158,1.198
				c-0.043,0.352-0.187,0.615-0.428,0.791c-0.244,0.177-0.509,0.264-0.793,0.264c-0.285,0-0.545-0.094-0.777-0.283
				c-0.232-0.188-0.338-0.488-0.316-0.895c0.021-0.459,0.021-1.016,0-1.664c-0.021-0.65-0.043-1.333-0.063-2.051
				c-0.021-0.717-0.031-1.414-0.031-2.091C59.576,48.973,59.618,48.364,59.703,47.822z"/>
			<path fill="#FFFFFF" d="M74.193,48.31c-0.105,1.326-0.17,2.491-0.189,3.491c-0.021,1.002-0.043,1.924-0.063,2.762
				c0.782-1.244,1.448-2.842,1.998-4.792c0.062-0.27,0.164-0.453,0.301-0.548c0.138-0.095,0.275-0.115,0.412-0.061
				c0.138,0.055,0.243,0.162,0.318,0.325c0.072,0.163,0.077,0.379,0.016,0.65c-0.381,1.597-0.853,2.943-1.412,4.04
				s-1.146,2.011-1.76,2.741c-0.042,0.432-0.101,0.865-0.174,1.299c-0.074,0.434-0.164,0.879-0.271,1.34
				c-0.338,1.354-0.819,2.349-1.442,2.984s-1.259,1.016-1.902,1.137c-0.646,0.122-1.247,0.034-1.808-0.264s-0.936-0.704-1.126-1.219
				c-0.316-0.865-0.354-1.631-0.109-2.293c0.242-0.664,0.628-1.227,1.156-1.687c0.528-0.461,1.109-0.817,1.743-1.075
				c0.636-0.258,1.185-0.412,1.649-0.468l0.095-1.096c-0.17,0.297-0.396,0.555-0.682,0.771c-0.286,0.217-0.65,0.324-1.094,0.324
				c-0.782,0-1.396-0.283-1.84-0.854c-0.443-0.567-0.744-1.285-0.902-2.151c-0.159-0.866-0.191-1.8-0.096-2.802
				c0.096-1.001,0.29-1.929,0.586-2.781c0.297-0.853,0.688-1.556,1.174-2.111c0.485-0.555,1.047-0.833,1.681-0.833
				c0.38,0,0.75,0.163,1.11,0.487c0.422,0.379,0.729,0.839,0.919,1.38c0.189-0.054,0.386-0.074,0.587-0.061
				c0.2,0.014,0.391,0.068,0.57,0.162c0.18,0.095,0.321,0.244,0.428,0.447C74.172,47.758,74.214,48.012,74.193,48.31z
				 M71.339,58.176c-0.612,0.137-1.179,0.412-1.695,0.833c-0.52,0.419-0.83,1.009-0.937,1.767c-0.062,0.433-0.005,0.758,0.175,0.976
				c0.18,0.216,0.406,0.271,0.683,0.162c0.272-0.108,0.57-0.413,0.888-0.914c0.318-0.501,0.581-1.252,0.792-2.254L71.339,58.176z
				 M71.403,53.223c0.19-0.623,0.317-1.299,0.38-2.029c0.064-0.731,0.068-1.407,0.017-2.03c-0.054-0.623-0.163-1.157-0.333-1.604
				c-0.17-0.447-0.381-0.697-0.635-0.751c-0.273-0.054-0.522,0.115-0.744,0.507c-0.223,0.393-0.412,0.894-0.57,1.502
				c-0.159,0.608-0.271,1.272-0.333,1.99c-0.063,0.716-0.068,1.386-0.017,2.009c0.053,0.623,0.169,1.146,0.35,1.563
				c0.179,0.42,0.438,0.63,0.775,0.63c0.17,0,0.312-0.062,0.43-0.184c0.115-0.121,0.211-0.27,0.284-0.446
				c0.073-0.176,0.144-0.372,0.206-0.589C71.276,53.574,71.339,53.385,71.403,53.223z"/>
			<path fill="#FFFFFF" d="M76.191,39.945c0-0.65,0.137-1.103,0.412-1.36c0.272-0.257,0.575-0.372,0.902-0.345
				c0.327,0.027,0.612,0.177,0.856,0.447c0.242,0.271,0.332,0.623,0.27,1.056c-0.043,0.325-0.11,0.961-0.207,1.909
				c-0.095,0.948-0.185,2.037-0.27,3.269c-0.084,1.232-0.158,2.511-0.221,3.837c-0.064,1.327-0.103,2.553-0.111,3.676
				c-0.012,1.123,0.021,2.043,0.095,2.76c0.073,0.719,0.218,1.076,0.43,1.076c0.127,0,0.301-0.297,0.521-0.893
				s0.444-1.271,0.666-2.031c0.222-0.757,0.429-1.494,0.618-2.212c0.19-0.717,0.317-1.184,0.381-1.401
				c0.042-0.244,0.137-0.406,0.285-0.487c0.146-0.081,0.291-0.102,0.428-0.061c0.139,0.041,0.254,0.136,0.351,0.285
				c0.095,0.149,0.109,0.345,0.047,0.588c-0.127,0.542-0.296,1.299-0.508,2.274s-0.476,1.936-0.792,2.883
				c-0.317,0.948-0.698,1.771-1.143,2.479c-0.442,0.703-0.973,1.055-1.586,1.055c-0.57,0-0.998-0.385-1.283-1.156
				s-0.48-1.753-0.587-2.943c-0.104-1.19-0.143-2.519-0.109-3.979c0.03-1.462,0.089-2.89,0.174-4.284
				c0.084-1.394,0.169-2.666,0.254-3.817C76.148,41.414,76.191,40.541,76.191,39.945z"/>
			<path fill="#FFFFFF" d="M85.513,49.812c-0.17,0.298-0.382,0.542-0.636,0.731c-0.254,0.19-0.528,0.345-0.823,0.467
				c-0.298,0.122-0.599,0.21-0.904,0.264c-0.307,0.056-0.576,0.097-0.81,0.123c-0.062,0.567-0.1,1.123-0.109,1.664
				s0.011,1.029,0.062,1.461c0.054,0.435,0.138,0.799,0.254,1.098c0.115,0.298,0.279,0.486,0.491,0.568
				c0.274,0.107,0.571,0.047,0.889-0.184c0.315-0.229,0.622-0.549,0.92-0.954c0.295-0.405,0.58-0.88,0.854-1.421
				c0.275-0.541,0.519-1.062,0.729-1.562c0.211-0.502,0.392-0.961,0.539-1.381c0.146-0.419,0.242-0.724,0.284-0.914
				c0.063-0.244,0.163-0.406,0.303-0.487c0.137-0.081,0.27-0.108,0.396-0.081c0.127,0.027,0.232,0.115,0.316,0.264
				c0.084,0.149,0.104,0.345,0.062,0.588c-0.042,0.163-0.116,0.481-0.222,0.955c-0.106,0.475-0.26,1.008-0.46,1.604
				c-0.201,0.596-0.444,1.212-0.729,1.848c-0.284,0.638-0.629,1.22-1.029,1.746c-0.401,0.526-0.861,0.967-1.38,1.319
				c-0.519,0.352-1.095,0.527-1.729,0.527c-0.761,0-1.353-0.339-1.774-1.016c-0.424-0.676-0.708-1.529-0.856-2.559
				c-0.147-1.027-0.174-2.131-0.079-3.31c0.095-1.177,0.285-2.28,0.571-3.309c0.285-1.028,0.645-1.881,1.078-2.558
				c0.432-0.676,0.914-1.015,1.44-1.015c0.508,0,0.957,0.223,1.349,0.67c0.392,0.447,0.692,0.968,0.903,1.563
				c0.211,0.596,0.333,1.205,0.365,1.827C85.814,48.973,85.724,49.46,85.513,49.812z M83.546,46.198
				c-0.147,0.082-0.307,0.426-0.475,1.036c-0.17,0.609-0.328,1.347-0.477,2.213c0.231,0,0.465-0.034,0.696-0.103
				c0.232-0.067,0.402-0.209,0.508-0.426c0.084-0.163,0.138-0.399,0.158-0.71c0.021-0.311,0.017-0.629-0.016-0.955
				c-0.031-0.325-0.084-0.595-0.158-0.812C83.71,46.225,83.63,46.144,83.546,46.198z"/>
			<path fill="#FFFFFF" d="M91.791,54.4c-0.043,0.677-0.27,1.156-0.682,1.44c-0.412,0.283-0.84,0.359-1.284,0.224
				c-0.423-0.135-0.809-0.412-1.157-0.832c-0.35-0.42-0.503-0.94-0.46-1.563c0.042-0.704,0.248-1.198,0.618-1.481
				c0.369-0.285,0.798-0.387,1.284-0.305c0.485,0.135,0.897,0.434,1.237,0.893C91.685,53.236,91.833,53.777,91.791,54.4z"/>
		</g>
		<g display="none">
			<path display="inline" fill="#FFFFFF" d="M40.423,77.604l-2.129-5.273h-0.03c0.021,0.322,0.03,0.652,0.03,0.992v4.281h-0.383
				v-5.711h0.617l2.022,5.022h0.023l2.023-5.022h0.602v5.711h-0.402v-4.328c0-0.303,0.017-0.614,0.048-0.938h-0.031l-2.138,5.267
				H40.423L40.423,77.604z"/>
			<path display="inline" fill="#FFFFFF" d="M47.564,75.587h-2.32l-0.797,2.017h-0.441l2.298-5.734h0.254l2.25,5.734h-0.449
				L47.564,75.587z M45.388,75.229h2.043l-0.777-2.06c-0.065-0.161-0.143-0.386-0.234-0.672c-0.069,0.25-0.146,0.478-0.229,0.68
				L45.388,75.229z"/>
			<path display="inline" fill="#FFFFFF" d="M53.455,77.604h-0.488l-2.19-3.017l-0.762,0.672v2.345h-0.398v-5.711h0.398v2.969
				l0.633-0.633l2.238-2.336h0.508l-2.34,2.414L53.455,77.604z"/>
			<path display="inline" fill="#FFFFFF" d="M57.384,77.604h-3.12v-5.711h3.12v0.366h-2.723v2.16h2.57v0.367h-2.57v2.448h2.723
				V77.604z"/>
			<path display="inline" fill="#FFFFFF" d="M59.076,75.114v2.487h-0.397v-5.711h1.358c0.709,0,1.232,0.131,1.57,0.394
				c0.338,0.262,0.508,0.655,0.508,1.182c0,0.384-0.102,0.706-0.303,0.97c-0.201,0.263-0.508,0.451-0.92,0.565l1.551,2.603h-0.478
				l-1.473-2.488L59.076,75.114L59.076,75.114z M59.076,74.771h1.09c0.482,0,0.855-0.107,1.121-0.322
				c0.267-0.215,0.398-0.532,0.398-0.951c0-0.436-0.131-0.751-0.392-0.949c-0.26-0.197-0.686-0.297-1.272-0.297h-0.945V74.771z"/>
			<path display="inline" fill="#FFFFFF" d="M34.378,81.739c0,0.905-0.227,1.622-0.68,2.149s-1.078,0.791-1.875,0.791
				c-0.794,0-1.418-0.264-1.871-0.791s-0.68-1.246-0.68-2.158c0-0.908,0.229-1.623,0.686-2.146s1.082-0.783,1.873-0.783
				c0.797,0,1.42,0.263,1.871,0.787S34.378,80.83,34.378,81.739z M29.707,81.739c0,0.817,0.183,1.45,0.547,1.896
				c0.365,0.446,0.889,0.67,1.57,0.67c0.688,0,1.213-0.222,1.576-0.664c0.363-0.441,0.545-1.076,0.545-1.901
				c0-0.823-0.182-1.454-0.545-1.894c-0.363-0.438-0.886-0.658-1.568-0.658c-0.68,0-1.204,0.223-1.571,0.664
				C29.892,80.294,29.707,80.924,29.707,81.739z"/>
			<path display="inline" fill="#FFFFFF" d="M39.843,84.604h-0.401l-3.383-5.07h-0.031c0.031,0.604,0.047,1.06,0.047,1.367v3.703
				h-0.383v-5.711h0.397l3.38,5.062h0.022c-0.022-0.47-0.035-0.914-0.035-1.336v-3.728h0.388L39.843,84.604L39.843,84.604z"/>
			<path display="inline" fill="#FFFFFF" d="M45.796,81.691c0,0.959-0.251,1.684-0.754,2.175s-1.241,0.735-2.215,0.735H41.46v-5.711
				h1.543c0.912,0,1.605,0.238,2.08,0.715C45.558,80.083,45.796,80.777,45.796,81.691z M45.363,81.708
				c0-0.817-0.208-1.433-0.623-1.847c-0.415-0.412-1.025-0.618-1.83-0.618h-1.051v5.008h0.945
				C44.51,84.251,45.363,83.402,45.363,81.708z"/>
			<path display="inline" fill="#FFFFFF" d="M50.23,84.604h-3.121v-5.711h3.121v0.366h-2.724v2.16h2.57v0.367h-2.57v2.448h2.724
				V84.604z"/>
			<path display="inline" fill="#FFFFFF" d="M51.921,82.114v2.487h-0.397v-5.711h1.358c0.709,0,1.232,0.131,1.57,0.394
				c0.338,0.262,0.508,0.655,0.508,1.182c0,0.384-0.102,0.706-0.303,0.97c-0.201,0.263-0.508,0.451-0.92,0.565l1.551,2.603h-0.477
				l-1.474-2.488L51.921,82.114L51.921,82.114z M51.921,81.771h1.091c0.481,0,0.854-0.107,1.12-0.322
				c0.267-0.215,0.398-0.532,0.398-0.951c0-0.436-0.131-0.751-0.391-0.949c-0.261-0.197-0.687-0.297-1.273-0.297h-0.945V81.771z"/>
			<path display="inline" fill="#FFFFFF" d="M60.828,84.604H60.5l-1.254-4.406c-0.104-0.362-0.182-0.659-0.233-0.891
				c-0.041,0.227-0.103,0.486-0.179,0.78s-0.496,1.8-1.26,4.517h-0.336l-1.57-5.711h0.418l1,3.68
				c0.039,0.147,0.076,0.285,0.109,0.412c0.033,0.125,0.063,0.244,0.092,0.354s0.053,0.218,0.074,0.32
				c0.021,0.102,0.043,0.206,0.061,0.311c0.062-0.354,0.195-0.892,0.398-1.612l0.977-3.465h0.441l1.145,3.977
				c0.134,0.458,0.229,0.828,0.285,1.109c0.033-0.188,0.078-0.388,0.131-0.599c0.054-0.211,0.455-1.707,1.205-4.487h0.402
				L60.828,84.604z"/>
			<path display="inline" fill="#FFFFFF" d="M63.414,84.604v-5.711h0.398v5.711H63.414z"/>
			<path display="inline" fill="#FFFFFF" d="M64.492,86.044c-0.24,0-0.436-0.035-0.59-0.104v-0.345
				c0.203,0.052,0.396,0.078,0.582,0.078c0.631,0,0.945-0.344,0.945-1.03v-5.75h0.397v5.711
				C65.828,85.562,65.382,86.044,64.492,86.044z"/>
			<path display="inline" fill="#FFFFFF" d="M70.558,83.13c0,0.478-0.177,0.854-0.525,1.134c-0.349,0.278-0.816,0.418-1.396,0.418
				c-0.697,0-1.232-0.078-1.605-0.23v-0.398c0.412,0.176,0.937,0.262,1.574,0.262c0.469,0,0.84-0.106,1.115-0.321
				c0.274-0.216,0.411-0.497,0.411-0.847c0-0.215-0.045-0.396-0.137-0.537c-0.092-0.141-0.24-0.271-0.445-0.389
				c-0.204-0.117-0.508-0.242-0.905-0.379c-0.584-0.199-0.986-0.417-1.209-0.65c-0.224-0.232-0.334-0.543-0.334-0.932
				c0-0.427,0.168-0.775,0.502-1.045s0.766-0.404,1.291-0.404c0.537,0,1.041,0.103,1.512,0.306l-0.145,0.344
				c-0.476-0.198-0.929-0.297-1.359-0.297c-0.422,0-0.758,0.098-1.008,0.293c-0.25,0.194-0.375,0.461-0.375,0.797
				c0,0.211,0.039,0.384,0.115,0.521c0.075,0.136,0.202,0.257,0.377,0.365c0.174,0.107,0.475,0.236,0.897,0.389
				c0.445,0.152,0.779,0.303,1.004,0.447c0.226,0.144,0.387,0.309,0.49,0.491C70.507,82.648,70.558,82.869,70.558,83.13z"/>
		</g>
	</g>
	<g enable-background="new    ">
		<path fill="#FFFFFF" d="M36.516,74.277c0,0.793-0.198,1.421-0.595,1.882c-0.396,0.462-0.943,0.692-1.641,0.692
			c-0.695,0-1.241-0.23-1.637-0.692c-0.396-0.461-0.595-1.091-0.595-1.888c0-0.796,0.2-1.422,0.6-1.879
			c0.399-0.457,0.946-0.686,1.639-0.686c0.697,0,1.243,0.23,1.637,0.689S36.516,73.482,36.516,74.277z M32.428,74.277
			c0,0.716,0.16,1.27,0.479,1.66s0.777,0.586,1.374,0.586c0.602,0,1.062-0.193,1.379-0.581c0.318-0.388,0.477-0.942,0.477-1.665
			c0-0.72-0.159-1.271-0.477-1.655c-0.317-0.384-0.775-0.576-1.372-0.576c-0.595,0-1.053,0.193-1.376,0.581
			C32.59,73.015,32.428,73.564,32.428,74.277z"/>
		<path fill="#FFFFFF" d="M41.298,76.783h-0.352l-2.96-4.437h-0.027C37.986,72.875,38,73.274,38,73.543v3.24h-0.335v-4.997h0.349
			l2.957,4.43h0.021c-0.021-0.41-0.031-0.8-0.031-1.169v-3.261h0.338V76.783z"/>
		<path fill="#FFFFFF" d="M46.507,74.236c0,0.839-0.22,1.473-0.66,1.902s-1.086,0.645-1.938,0.645h-1.196v-4.997h1.35
			c0.797,0,1.404,0.208,1.82,0.626C46.299,72.828,46.507,73.438,46.507,74.236z M46.128,74.25c0-0.715-0.182-1.253-0.545-1.614
			c-0.364-0.361-0.897-0.542-1.602-0.542h-0.919v4.382h0.827C45.382,76.476,46.128,75.734,46.128,74.25z"/>
		<path fill="#FFFFFF" d="M50.386,76.783h-2.731v-4.997h2.731v0.321h-2.382v1.891h2.249v0.32h-2.249v2.144h2.382V76.783z"/>
		<path fill="#FFFFFF" d="M51.866,74.605v2.178h-0.348v-4.997h1.189c0.619,0,1.077,0.114,1.373,0.344
			c0.297,0.229,0.445,0.573,0.445,1.034c0,0.334-0.089,0.617-0.266,0.848c-0.176,0.229-0.445,0.395-0.805,0.495l1.357,2.276h-0.418
			l-1.288-2.178H51.866z M51.866,74.305h0.954c0.421,0,0.749-0.094,0.981-0.281c0.232-0.188,0.348-0.466,0.348-0.832
			c0-0.381-0.113-0.658-0.342-0.831c-0.228-0.173-0.599-0.26-1.113-0.26h-0.828V74.305z"/>
		<path fill="#FFFFFF" d="M59.659,76.783h-0.287l-1.097-3.855c-0.091-0.316-0.159-0.576-0.205-0.779
			c-0.036,0.198-0.089,0.426-0.155,0.684c-0.067,0.258-0.436,1.574-1.103,3.951h-0.294l-1.374-4.997h0.366l0.875,3.22
			c0.033,0.13,0.065,0.25,0.096,0.36c0.029,0.11,0.057,0.215,0.08,0.312s0.045,0.19,0.064,0.28s0.037,0.181,0.053,0.271
			c0.055-0.31,0.172-0.78,0.35-1.411l0.854-3.032h0.387l1.002,3.479c0.115,0.401,0.199,0.725,0.249,0.971
			c0.03-0.164,0.067-0.338,0.114-0.523c0.047-0.184,0.398-1.493,1.055-3.927h0.352L59.659,76.783z"/>
		<path fill="#FFFFFF" d="M61.923,76.783v-4.997h0.348v4.997H61.923z"/>
		<path fill="#FFFFFF" d="M62.866,78.045c-0.21,0-0.383-0.031-0.517-0.093v-0.301c0.178,0.046,0.348,0.068,0.509,0.068
			c0.552,0,0.828-0.301,0.828-0.902v-5.031h0.348v4.997C64.034,77.624,63.645,78.045,62.866,78.045z"/>
		<path fill="#FFFFFF" d="M68.174,75.494c0,0.418-0.153,0.748-0.46,0.992c-0.307,0.243-0.713,0.365-1.222,0.365
			c-0.61,0-1.079-0.067-1.405-0.201v-0.35c0.36,0.153,0.82,0.229,1.378,0.229c0.41,0,0.735-0.094,0.976-0.282
			c0.24-0.188,0.361-0.435,0.361-0.74c0-0.188-0.041-0.346-0.12-0.47s-0.21-0.237-0.39-0.34s-0.444-0.213-0.793-0.331
			c-0.51-0.176-0.863-0.365-1.058-0.569c-0.195-0.204-0.292-0.476-0.292-0.815c0-0.374,0.146-0.679,0.438-0.914
			c0.293-0.236,0.669-0.354,1.13-0.354c0.469,0,0.91,0.088,1.322,0.266l-0.126,0.301c-0.415-0.173-0.812-0.26-1.189-0.26
			c-0.369,0-0.663,0.086-0.882,0.257s-0.328,0.403-0.328,0.697c0,0.185,0.033,0.336,0.101,0.454c0.067,0.119,0.177,0.226,0.33,0.32
			s0.415,0.208,0.786,0.34c0.39,0.135,0.683,0.265,0.879,0.392c0.195,0.126,0.338,0.27,0.429,0.431
			C68.129,75.072,68.174,75.267,68.174,75.494z"/>
	</g>
	<g enable-background="new    ">
		<path fill="#FFFFFF" d="M37.851,82.605v2.178h-0.349v-4.997h1.189c0.62,0,1.078,0.114,1.374,0.344
			c0.296,0.229,0.444,0.573,0.444,1.034c0,0.334-0.088,0.617-0.265,0.848c-0.176,0.229-0.445,0.395-0.805,0.495l1.357,2.276h-0.417
			l-1.289-2.178H37.851z M37.851,82.305h0.954c0.421,0,0.749-0.094,0.981-0.281c0.232-0.188,0.349-0.466,0.349-0.832
			c0-0.381-0.114-0.658-0.342-0.831s-0.599-0.26-1.114-0.26h-0.827V82.305z"/>
		<path fill="#FFFFFF" d="M45.863,82.277c0,0.793-0.198,1.421-0.595,1.882c-0.396,0.462-0.943,0.692-1.641,0.692
			c-0.695,0-1.241-0.23-1.637-0.692c-0.396-0.461-0.595-1.091-0.595-1.888c0-0.796,0.2-1.422,0.6-1.879
			c0.399-0.457,0.946-0.686,1.639-0.686c0.697,0,1.243,0.23,1.637,0.689S45.863,81.482,45.863,82.277z M41.775,82.277
			c0,0.716,0.16,1.27,0.479,1.66s0.777,0.586,1.374,0.586c0.602,0,1.062-0.193,1.379-0.581c0.318-0.388,0.477-0.942,0.477-1.665
			c0-0.72-0.159-1.271-0.477-1.655c-0.317-0.384-0.775-0.576-1.372-0.576c-0.595,0-1.053,0.193-1.376,0.581
			C41.936,81.015,41.775,81.564,41.775,82.277z"/>
		<path fill="#FFFFFF" d="M47.011,79.786h1.371c0.618,0,1.071,0.104,1.36,0.314s0.434,0.526,0.434,0.95
			c0,0.289-0.088,0.53-0.265,0.723c-0.176,0.192-0.435,0.316-0.774,0.371v0.021c0.399,0.06,0.692,0.186,0.88,0.378
			c0.188,0.192,0.282,0.461,0.282,0.805c0,0.46-0.153,0.814-0.458,1.062c-0.305,0.249-0.738,0.373-1.299,0.373h-1.531V79.786z
			 M47.36,82.012h1.101c0.469,0,0.811-0.078,1.024-0.234c0.213-0.156,0.319-0.4,0.319-0.733s-0.12-0.574-0.36-0.725
			c-0.241-0.15-0.599-0.226-1.075-0.226H47.36V82.012z M47.36,82.318v2.157h1.176c0.925,0,1.388-0.376,1.388-1.128
			c0-0.686-0.488-1.029-1.463-1.029H47.36z"/>
		<path fill="#FFFFFF" d="M55.6,82.277c0,0.793-0.197,1.421-0.594,1.882c-0.396,0.462-0.943,0.692-1.641,0.692
			c-0.695,0-1.241-0.23-1.638-0.692c-0.396-0.461-0.595-1.091-0.595-1.888c0-0.796,0.199-1.422,0.6-1.879s0.946-0.686,1.639-0.686
			c0.697,0,1.244,0.23,1.638,0.689S55.6,81.482,55.6,82.277z M51.512,82.277c0,0.716,0.16,1.27,0.479,1.66
			c0.319,0.391,0.777,0.586,1.375,0.586c0.602,0,1.061-0.193,1.379-0.581s0.477-0.942,0.477-1.665c0-0.72-0.158-1.271-0.477-1.655
			s-0.775-0.576-1.373-0.576c-0.594,0-1.053,0.193-1.375,0.581S51.512,81.564,51.512,82.277z"/>
		<path fill="#FFFFFF" d="M58.052,84.783H57.7v-4.669h-1.624v-0.328h3.599v0.328h-1.623V84.783z"/>
		<path fill="#FFFFFF" d="M63.175,83.494c0,0.418-0.152,0.748-0.459,0.992c-0.307,0.243-0.714,0.365-1.223,0.365
			c-0.61,0-1.078-0.067-1.404-0.201v-0.35c0.359,0.153,0.819,0.229,1.377,0.229c0.41,0,0.736-0.094,0.977-0.282
			c0.24-0.188,0.36-0.435,0.36-0.74c0-0.188-0.04-0.346-0.12-0.47c-0.079-0.124-0.209-0.237-0.389-0.34
			c-0.181-0.103-0.445-0.213-0.793-0.331c-0.511-0.176-0.863-0.365-1.059-0.569s-0.292-0.476-0.292-0.815
			c0-0.374,0.146-0.679,0.438-0.914c0.293-0.236,0.67-0.354,1.131-0.354c0.469,0,0.91,0.088,1.322,0.266l-0.127,0.301
			c-0.414-0.173-0.811-0.26-1.189-0.26c-0.369,0-0.662,0.086-0.881,0.257s-0.328,0.403-0.328,0.697c0,0.185,0.033,0.336,0.1,0.454
			c0.068,0.119,0.178,0.226,0.33,0.32c0.153,0.095,0.415,0.208,0.787,0.34c0.389,0.135,0.682,0.265,0.878,0.392
			c0.196,0.126,0.339,0.27,0.429,0.431C63.13,83.072,63.175,83.267,63.175,83.494z"/>
	</g>
</g>
</svg>
